<?xml version="1.0" encoding="UTF-8"?>
<svg version="1.1" xmlns="http://www.w3.org/2000/svg" width="1080" height="1350">
<path d="M0 0 C356.4 0 712.8 0 1080 0 C1080 445.5 1080 891 1080 1350 C723.6 1350 367.2 1350 0 1350 C0 904.5 0 459 0 0 Z " fill="#FEFEFE" transform="translate(0,0)"/>
<path d="M0 0 C16.30325176 15.30915105 27.62564214 36.72175009 28.34204102 59.25512695 C28.5328455 85.94356787 18.26924794 107.99376917 -0.078125 127.1796875 C-0.62855469 127.79328125 -1.17898438 128.406875 -1.74609375 129.0390625 C-18.51203393 147.08832156 -47.85141026 159.37320637 -72.13037109 160.37939453 C-76.71699546 160.5207644 -81.30206122 160.55342297 -85.890625 160.5546875 C-86.63548157 160.55659088 -87.38033813 160.55849426 -88.14776611 160.56045532 C-97.9726518 160.55761646 -107.37730762 159.85413587 -117.078125 158.1796875 C-117.18358643 159.36594727 -117.28904785 160.55220703 -117.39770508 161.77441406 C-121.09223144 203.24898815 -121.09223144 203.24898815 -123.07568359 220.94018555 C-123.64253616 226.00899199 -124.16795341 231.07115285 -124.56640625 236.15625 C-125.72933118 250.93134416 -127.43172335 261.82518802 -139.078125 272.1796875 C-147.04153044 277.78750545 -157.55933771 279.28012534 -167.078125 278.1796875 C-174.0803377 276.21728394 -180.17401056 272.26950546 -184.3984375 266.3203125 C-191.5348292 253.04562583 -186.08523336 232.07075394 -184.6506362 217.91416907 C-184.29986662 214.43717984 -183.95749559 210.959362 -183.61404419 207.48164368 C-183.03202705 201.59982268 -182.44469849 195.71855303 -181.85351562 189.83764648 C-181.04238601 181.76872582 -180.24056765 173.69890254 -179.44089055 165.62883997 C-176.6124574 137.09690328 -173.72551389 108.570996 -170.78125 80.05078125 C-170.6584454 78.859065 -170.53564079 77.66734875 -170.40911484 76.43951988 C-162.3821527 -1.36793308 -162.3821527 -1.36793308 -143.078125 -19.8203125 C-142.5625 -20.366875 -142.046875 -20.9134375 -141.515625 -21.4765625 C-102.83774124 -59.34865701 -33.53251398 -29.37246526 0 0 Z " fill="#322B6F" transform="translate(573.078125,336.8203125)"/>
<path d="M0 0 C8.0911747 4.76408366 14.01574407 12.04723221 17 21 C17.91821285 32.75334283 15.84215183 44.14037122 13.9375 55.6875 C13.61688837 57.67808292 13.29716268 59.66880871 12.97827148 61.65966797 C12.31939819 65.7612666 11.65397201 69.86172425 10.98339844 73.96142578 C10.05627158 79.63676175 9.15465175 85.31590723 8.2578125 90.99609375 C3.28433211 122.36376804 -2.29322081 153.62619397 -8.85400391 184.703125 C-10.38123106 191.94269942 -11.81683695 199.19426142 -13.1953125 206.46362305 C-15.37915526 217.97261806 -17.65416384 229.45636189 -20.17630005 240.89605713 C-20.47111207 242.23735858 -20.76245991 243.57942702 -21.05001831 244.92230225 C-23.35066834 255.62570181 -25.87975227 265.16810533 -35 272 C-43.8633703 277.43327344 -53.83532337 278.7195008 -64 277 C-72.72758305 274.07246268 -77.11221994 267.62686845 -81.18745422 259.68623352 C-82.28895856 257.28367937 -83.33623281 254.86498754 -84.36328125 252.4296875 C-84.94806496 251.07408722 -84.94806496 251.07408722 -85.54466248 249.69110107 C-86.80881689 246.75584988 -88.06064138 243.81551339 -89.3125 240.875 C-90.18884121 238.83472079 -91.06613137 236.79484894 -91.94433594 234.75537109 C-93.74264639 230.57736006 -95.53695231 226.39766339 -97.32861328 222.21679688 C-101.05546655 213.53068907 -104.8378428 204.8688741 -108.62191772 196.20758057 C-110.41147669 192.11064517 -112.19772356 188.01226645 -113.984375 183.9140625 C-114.989496 181.6093369 -115.99474368 179.30466659 -117 177 C-119.03220007 181.51027175 -119.98959106 186.08621378 -120.98828125 190.90234375 C-121.1716806 191.76784851 -121.35507996 192.63335327 -121.54403687 193.52508545 C-122.1374425 196.32841227 -122.72493794 199.13294318 -123.3125 201.9375 C-124.12533732 205.78693971 -124.94132276 209.63570853 -125.7578125 213.484375 C-125.95583969 214.41952438 -126.15386688 215.35467377 -126.3578949 216.31816101 C-127.73222172 222.79132016 -129.17458682 229.2452523 -130.6875 235.6875 C-133.04650684 245.77569339 -134.96837286 255.9488275 -136.8581543 266.13354492 C-141.43527339 290.45645309 -141.43527339 290.45645309 -150.8125 298.375 C-158.78194938 302.43785655 -167.38237382 303.09847912 -176 300.875 C-184.74744299 298.00390675 -191.72827355 291.7509229 -196.2578125 283.7890625 C-202.50806621 270.28326951 -197.77566697 255.12743723 -194.875 241.3125 C-194.45850621 239.2848162 -194.04273991 237.25698284 -193.62768555 235.22900391 C-190.85709953 221.76833504 -187.88824297 208.36398284 -184.70166016 194.99560547 C-183.41179398 189.48876554 -182.21306936 183.96166135 -181 178.4375 C-178.87667269 168.81161185 -176.6469511 159.21715315 -174.32250977 149.63793945 C-172.61948258 142.6130214 -170.96839953 135.57728053 -169.34130859 128.53442383 C-166.62221535 116.76594593 -163.82235464 105.03907502 -160.63574219 93.38818359 C-159.91459187 90.67916194 -159.24209731 87.95995149 -158.5703125 85.23828125 C-158.06792479 83.26296577 -157.56532406 81.28770445 -157.0625 79.3125 C-156.7375354 77.94834961 -156.7375354 77.94834961 -156.40600586 76.55664062 C-153.89417637 66.8862317 -148.55694996 60.13738084 -140 55 C-132.21090337 51.31421675 -122.97586025 49.17797626 -114.52734375 51.75390625 C-107.16670604 54.88739977 -102.6922635 58.62881289 -99.265625 65.953125 C-98.92919983 66.64923889 -98.59277466 67.34535278 -98.24615479 68.06256104 C-93.87503148 77.19703333 -89.81401665 86.47613167 -85.75 95.75 C-84.91645193 97.64437167 -84.08270976 99.53865796 -83.2487793 101.43286133 C-76.73498119 116.24684 -70.31421373 131.09984292 -64 146 C-60.04580091 125.42975154 -56.29014055 104.83295383 -52.75 84.1875 C-52.5297818 82.90705307 -52.5297818 82.90705307 -52.30511475 81.60073853 C-50.4256972 70.65743171 -48.62688674 59.70441054 -46.91015625 48.734375 C-46.38263434 45.39433796 -45.8543668 42.05441941 -45.3260498 38.71450806 C-44.98606118 36.54500969 -44.65094743 34.37474127 -44.32092285 32.20370483 C-43.85719649 29.1533746 -43.37732737 26.10595517 -42.89453125 23.05859375 C-42.76240738 22.15820374 -42.63028351 21.25781372 -42.49415588 20.33013916 C-41.15735336 12.07214228 -38.5585183 5.45894244 -31.8359375 0.25390625 C-21.88445251 -6.54274626 -10.38069541 -5.24498294 0 0 Z " fill="#322B6F" transform="translate(327,726)"/>
<path d="M0 0 C2.31182848 2.03917096 3.87145372 3.93206656 5.5390625 6.51171875 C6.27189453 7.62353516 6.27189453 7.62353516 7.01953125 8.7578125 C9.70214526 13.42288613 10.68377478 17.17357828 10.7890625 22.57421875 C10.82902344 23.67765625 10.86898437 24.78109375 10.91015625 25.91796875 C10.00925349 37.70327829 2.36704429 49.32567357 -3.0234375 59.63671875 C-3.82544527 61.1817942 -4.62711652 62.72704438 -5.4284668 64.27246094 C-7.82206763 68.87992911 -10.23161166 73.47889635 -12.6484375 78.07421875 C-13.00153992 78.74563904 -13.35464233 79.41705933 -13.71844482 80.10882568 C-21.92582148 95.69672191 -30.41860472 111.11005906 -39.140625 126.41552734 C-41.60781875 130.76587383 -44.03617407 135.13761856 -46.4609375 139.51171875 C-46.88802002 140.28209473 -47.31510254 141.0524707 -47.75512695 141.84619141 C-48.72028802 143.58846619 -49.68448679 145.33127402 -50.6484375 147.07421875 C-45.09683175 155.74130498 -38.87155682 163.88494273 -32.6484375 172.07421875 C-32.2148291 172.64720703 -31.7812207 173.22019531 -31.33447266 173.81054688 C-26.41171056 180.3116439 -21.36406203 186.6929167 -16.2109375 193.01171875 C-11.97968598 198.20189589 -7.75312286 203.39486441 -3.5859375 208.63671875 C-3.14515869 209.18384521 -2.70437988 209.73097168 -2.25024414 210.29467773 C5.52496375 220.12763072 7.64891849 228.62694476 6.3515625 241.07421875 C4.87017066 245.45376978 2.86252191 249.20290663 0.3515625 253.07421875 C-0.05449219 253.70070313 -0.46054687 254.3271875 -0.87890625 254.97265625 C-4.93239039 260.4234165 -11.30855319 263.932494 -17.6484375 266.07421875 C-25.0801 266.95576768 -31.53222531 266.59995716 -37.6484375 262.07421875 C-43.89870495 256.90247978 -48.67357082 250.35837615 -53.6015625 243.97265625 C-56.81637383 239.82458055 -60.16562418 235.79424587 -63.5234375 231.76171875 C-69.08368243 225.08173431 -74.40520218 218.25121985 -79.56201172 211.25463867 C-80.07006348 210.57506104 -80.57811523 209.8954834 -81.1015625 209.1953125 C-81.54661133 208.59130615 -81.99166016 207.9872998 -82.45019531 207.36499023 C-82.84561523 206.93903564 -83.24103516 206.51308105 -83.6484375 206.07421875 C-84.3084375 206.07421875 -84.9684375 206.07421875 -85.6484375 206.07421875 C-86.84114596 207.52108512 -86.84114596 207.52108512 -87.9765625 209.45703125 C-88.4394165 210.20106201 -88.90227051 210.94509277 -89.37915039 211.71166992 C-89.88051514 212.53256104 -90.38187988 213.35345215 -90.8984375 214.19921875 C-91.98521355 215.94820478 -93.07247253 217.6968908 -94.16015625 219.4453125 C-94.73040527 220.36683105 -95.3006543 221.28834961 -95.88818359 222.23779297 C-102.95168718 233.61973259 -110.117096 244.95312559 -117.5859375 256.07421875 C-117.99787354 256.70223389 -118.40980957 257.33024902 -118.83422852 257.97729492 C-124.39786649 266.13796719 -131.03830219 270.70823799 -140.6484375 273.07421875 C-149.75831678 274.44559843 -158.31809777 271.56040061 -165.8984375 266.51171875 C-171.82553024 261.57655682 -175.85450435 255.99839875 -177.3984375 248.3671875 C-178.11827348 236.90604894 -173.91040639 229.37480568 -167.6484375 220.07421875 C-166.88225368 218.90922149 -166.11661198 217.74386749 -165.3515625 216.578125 C-164.17273526 214.79648553 -162.98698931 213.0204791 -161.7878418 211.25244141 C-155.48434428 201.95647005 -149.6296135 192.37116094 -143.72741699 182.81768799 C-142.59219576 180.98334053 -141.45317059 179.15139571 -140.31347656 177.31982422 C-138.32262653 174.11888288 -136.34181483 170.91191627 -134.36746216 167.70077515 C-133.60017092 166.455782 -132.82991157 165.21261295 -132.05661011 163.97134399 C-130.9758075 162.23469051 -129.90655722 160.49142616 -128.83984375 158.74609375 C-128.22310791 157.74674805 -127.60637207 156.74740234 -126.97094727 155.71777344 C-125.35016296 152.97065198 -125.35016296 152.97065198 -125.6484375 149.07421875 C-127.14314004 146.61519199 -128.67205419 144.33141812 -130.35546875 142.0078125 C-131.3744135 140.56448847 -132.39210475 139.12027887 -133.40869141 137.67529297 C-133.94254456 136.92076843 -134.47639771 136.1662439 -135.02642822 135.38885498 C-137.6920941 131.58490213 -140.26993451 127.72323966 -142.84765625 123.859375 C-143.37196228 123.07507111 -143.89626831 122.29076721 -144.4364624 121.48269653 C-146.07144131 119.03524592 -147.70414587 116.58629546 -149.3359375 114.13671875 C-149.90358826 113.28460815 -150.47123901 112.43249756 -151.05609131 111.55456543 C-163.57530486 92.74918134 -175.89543845 73.86031564 -187.4609375 54.44921875 C-187.80481506 53.87409546 -188.14869263 53.29897217 -188.50299072 52.7064209 C-195.38868013 41.16378171 -200.52979426 31.52715882 -197.02734375 17.60546875 C-193.11301218 8.83736602 -185.67536867 3.56638334 -177.06640625 -0.015625 C-168.25004794 -3.33422191 -161.39183902 -2.25598765 -152.703125 1.1015625 C-144.20606278 6.58879577 -139.20273248 15.56439054 -134.1484375 24.07421875 C-132.74282833 26.40380354 -131.3300621 28.72902907 -129.91796875 31.0546875 C-129.38397209 31.93703316 -129.38397209 31.93703316 -128.83918762 32.83720398 C-125.25939881 38.74332455 -121.56526036 44.57394127 -117.8359375 50.38671875 C-117.19591797 51.38437256 -116.55589844 52.38202637 -115.89648438 53.40991211 C-107.56578872 66.35341306 -99.10785368 79.21463114 -90.6484375 92.07421875 C-81.99032253 77.36007426 -74.03475342 62.34652998 -66.25782776 47.15684509 C-63.29127935 41.365903 -60.27592212 35.60149636 -57.21875 29.85791016 C-55.04410902 25.76505461 -52.93186869 21.64957739 -50.875 17.49609375 C-50.3996582 16.55121094 -49.92431641 15.60632813 -49.43457031 14.6328125 C-48.52621753 12.82490758 -47.63120418 11.01020647 -46.75292969 9.1875 C-43.09971926 1.97669821 -38.3265379 -2.47371431 -31.6484375 -6.92578125 C-19.48912755 -10.03158162 -10.01182821 -7.27998718 0 0 Z " fill="#322B6F" transform="translate(802.6484375,721.92578125)"/>
<path d="M0 0 C1.73141339 0.00239159 3.46282942 0.00328824 5.19424438 0.0027771 C8.81699993 0.00589363 12.43935661 0.02235426 16.06201172 0.04931641 C20.644766 0.08303837 25.22707844 0.0909511 29.80994225 0.08942604 C33.3879498 0.08997763 36.96586578 0.10107269 40.54384232 0.11542892 C42.22986792 0.1216808 43.91590364 0.12570769 45.60194016 0.12721634 C54.79911245 0.14443986 63.90199234 0.48068919 73.06103516 1.35302734 C73.89301611 1.42967936 74.72499706 1.50633137 75.58218956 1.58530617 C85.56813097 2.62833128 92.15244019 6.18160098 98.53125 14.01953125 C104.07343157 22.0007835 105.34938413 29.85328846 104.2265625 39.4609375 C102.34531182 47.9877897 98.50179284 54.90040918 91.18359375 59.83984375 C86.09962445 62.35120208 81.15083426 62.68659982 75.56640625 62.6171875 C74.79849762 62.61227295 74.03058899 62.6073584 73.2394104 62.60229492 C61.52083181 62.47988826 49.809619 61.94078908 38.1015625 61.4609375 C35.67839839 61.3642575 33.25522135 61.26790113 30.83203125 61.171875 C24.96338761 60.93861938 19.09491516 60.70139702 13.2265625 60.4609375 C13.16189789 61.19830643 13.09723328 61.93567535 13.03060913 62.69538879 C12.94364777 63.67223129 12.8566864 64.64907379 12.76708984 65.65551758 C12.68180023 66.61976151 12.59651062 67.58400543 12.50863647 68.57746887 C12.0964824 72.79066626 11.49541477 76.96529762 10.8515625 81.1484375 C10.65856567 82.42122559 10.65856567 82.42122559 10.46166992 83.71972656 C9.23505598 91.66931417 7.78059197 99.56955383 6.2265625 107.4609375 C7.1959375 107.44933594 8.1653125 107.43773437 9.1640625 107.42578125 C48.04404112 107.10276028 48.04404112 107.10276028 61.5 119.59375 C67.71237276 126.31210787 68.60501399 133.22588009 68.49609375 142.078125 C67.75154027 151.42281073 63.1220174 158.31551453 56.2265625 164.4609375 C47.56202669 171.56519291 36.72423731 169.88387934 26.2265625 169.4609375 C23.64459409 169.37822305 21.06255757 169.29761649 18.48046875 169.21875 C11.39460851 168.99737921 4.31044074 168.73827384 -2.7734375 168.4609375 C-2.88619019 169.38652466 -2.88619019 169.38652466 -3.0012207 170.33081055 C-4.76209871 184.73327537 -6.67531108 199.10390688 -8.7734375 213.4609375 C-8.2205304 213.40296997 -7.66762329 213.34500244 -7.09796143 213.28527832 C9.98014185 211.55116599 26.99822559 211.02488564 44.14892578 210.98046875 C47.78646275 210.9693558 51.42255655 210.92082058 55.05963516 210.86452484 C57.91670779 210.82703545 60.77343203 210.8168503 63.63072968 210.813797 C65.61144006 210.80499092 67.59196258 210.76792739 69.57232666 210.7298584 C79.13141449 210.77677301 87.46687252 212.81551701 94.49176025 219.67175293 C101.52917725 227.90099247 102.82573014 236.16902185 102.5703125 246.80078125 C101.82526111 254.73388531 99.04479099 260.32812825 93.3984375 265.890625 C85.56507571 271.55431464 79.40201567 272.01854288 69.921875 271.9296875 C67.93526984 271.93819685 65.94866443 271.94674106 63.96206665 271.95682621 C61.86299035 271.96471633 59.76406554 271.96397991 57.66497803 271.96115112 C50.41940793 271.95501828 43.1746073 272.02961117 35.9296875 272.12109375 C35.2099815 272.12992647 34.4902755 272.13875919 33.74876022 272.14785957 C20.80858657 272.319506 7.97522458 273.05815425 -4.8984375 274.3984375 C-5.7305072 274.48416016 -6.5625769 274.56988281 -7.41986084 274.65820312 C-16.21088076 275.58188048 -24.95998188 276.72066868 -33.69848633 278.05322266 C-45.21336169 279.58000645 -55.03076591 278.39672114 -65.00390625 272.0390625 C-70.06070684 268.02812472 -73.53631883 262.86676281 -74.7734375 256.4609375 C-75.18884775 249.30697311 -74.55586535 242.34009897 -73.5234375 235.26953125 C-73.38975769 234.31014145 -73.25607788 233.35075165 -73.11834717 232.36228943 C-72.67706019 229.20664062 -72.22530908 226.05258652 -71.7734375 222.8984375 C-71.45921672 220.66758517 -71.1457562 218.43662563 -70.83300781 216.20556641 C-70.3379974 212.67681998 -69.84214118 209.14820546 -69.34332275 205.61999512 C-68.08015877 196.68377705 -66.84965674 187.7434156 -65.6328125 178.80078125 C-65.27740548 176.19538546 -64.92193717 173.58999803 -64.56640625 170.98461914 C-64.04966195 167.19758993 -63.53354485 163.41048349 -63.02001953 159.62301636 C-61.44139506 147.99464399 -59.85572137 136.38746009 -57.73974609 124.84309387 C-56.80702346 119.75022728 -56.11427426 114.66491882 -55.5234375 109.5234375 C-53.46089614 92.84477205 -50.51776388 76.29086822 -47.67431641 59.73144531 C-46.95258348 55.52405182 -46.24828503 51.31400052 -45.55018616 47.10263062 C-45.04743518 44.09021586 -44.5308039 41.08031082 -44.00991821 38.07098389 C-43.77290719 36.68749582 -43.5410915 35.30310546 -43.31503296 33.91778564 C-41.54081849 23.08937996 -39.16045759 12.99564756 -30.06748962 6.04248047 C-20.71948972 -0.40212616 -10.90256394 -0.10032521 0 0 Z " fill="#322B6F" transform="translate(459.7734375,692.5390625)"/>
<path d="M0 0 C4.45323264 3.28854103 7.23490242 7.8337144 9.1484375 12.9375 C9.8519073 17.96532621 9.82324398 22.96510558 9.78515625 28.03125 C9.79322598 29.50550835 9.80376093 30.97975501 9.81660461 32.45397949 C9.84504595 36.33081985 9.84576108 40.20712547 9.83874512 44.08404541 C9.83053947 50.96233728 9.8677462 57.84061022 9.91015625 64.71875 C9.91428654 65.46218658 9.91841682 66.20562317 9.92267227 66.97158813 C10.04101633 85.40775145 11.13785276 103.76609188 14.3984375 121.9375 C14.61242187 123.14954102 14.82640625 124.36158203 15.046875 125.61035156 C17.84358506 140.65070468 22.21345723 159.86837942 35.3984375 169.25 C40.88128688 172.11365382 46.1093619 171.35466571 51.8984375 169.9375 C69.46243037 164.16377577 80.24182139 149.39553331 88.80078125 133.95703125 C104.37555208 102.68355243 107.68778015 64.28167383 103.1484375 29.9375 C102.41848776 21.52222231 103.00191484 14.89025418 108.1484375 7.9375 C115.50984467 0.78387448 122.45061624 -0.46580738 132.33935547 -0.42822266 C138.39198066 -0.29459168 143.03739406 0.52659575 148.1484375 3.9375 C148.84066406 4.36160156 149.53289062 4.78570312 150.24609375 5.22265625 C157.17576899 9.87266263 162.26979049 16.73976758 164.1484375 24.9375 C165.02539033 30.98876006 165.29700683 36.96695752 165.28125 43.07421875 C165.28220673 43.91612259 165.28316345 44.75802643 165.28414917 45.6254425 C165.28482506 47.39604772 165.28301238 49.1666555 165.27880859 50.93725586 C165.27348585 53.60080756 165.27875645 56.26418805 165.28515625 58.92773438 C165.29211078 72.48764761 164.79961816 85.8098319 162.3984375 99.1875 C162.2228833 100.17274658 162.0473291 101.15799316 161.86645508 102.1730957 C160.1833999 111.27927127 157.94089136 120.11234643 155.1484375 128.9375 C154.78758057 130.09765625 154.78758057 130.09765625 154.41943359 131.28125 C146.29681403 157.02290223 134.23153688 179.90452432 116.1484375 199.9375 C115.40980469 200.75992188 114.67117188 201.58234375 113.91015625 202.4296875 C94.86292195 222.55638115 68.26560206 232.50598043 40.98754883 233.29370117 C22.47970027 233.44652737 6.92371815 227.38591474 -6.8515625 214.9375 C-7.53605469 214.33421875 -8.22054687 213.7309375 -8.92578125 213.109375 C-24.39292014 198.64501722 -32.52313469 178.65037274 -38.8515625 158.9375 C-39.08472168 158.23963379 -39.31788086 157.54176758 -39.55810547 156.82275391 C-50.82616374 123.06825457 -52.10960662 87.1882054 -52.1640625 51.9375 C-52.16773834 50.77639709 -52.17141418 49.61529419 -52.17520142 48.41900635 C-52.18074644 45.07081831 -52.16992543 41.72313935 -52.15234375 38.375 C-52.15310913 37.38353973 -52.15387451 36.39207947 -52.15466309 35.37057495 C-52.04009766 23.7922143 -50.73500179 12.93233677 -42.6015625 4.1875 C-30.74761217 -6.90820191 -13.85776964 -7.95213785 0 0 Z " fill="#322B6F" transform="translate(179.8515625,327.0625)"/>
<path d="M0 0 C6.25990471 3.64256498 11.29616672 9.20778343 13.52734375 16.1171875 C13.71601319 18.95049262 13.80117905 21.68390956 13.78740597 24.51597214 C13.79121164 25.36323183 13.79501731 26.21049153 13.7989383 27.08342576 C13.80928264 29.93562246 13.80534266 32.7876212 13.80149841 35.63983154 C13.80594927 37.70013475 13.81126281 39.76043624 13.81736714 41.82073522 C13.83157579 47.49286298 13.83320989 53.16493603 13.83277023 58.83707905 C13.8344159 64.95038809 13.84747771 71.06367443 13.85896301 77.17697144 C13.88064088 89.85279131 13.88922112 102.52858814 13.89399802 115.20442223 C13.89425919 115.89342826 13.89452037 116.58243429 13.89478946 117.2923193 C13.89517987 118.32789497 13.89517987 118.32789497 13.89557817 119.38439136 C13.89865997 127.03363967 13.90516454 134.68288452 13.91179085 142.33213043 C13.93143897 165.4338349 13.94784326 188.53553563 13.95066738 211.63724899 C13.95076144 212.37622208 13.9508555 213.11519516 13.95095241 213.87656137 C13.9513309 216.87132258 13.95169489 219.8660838 13.95205539 222.86084502 C13.95232711 225.1149123 13.95260379 227.36897959 13.95288086 229.62304688 C13.95296888 230.36787696 13.9530569 231.11270704 13.95314759 231.88010773 C13.95605307 255.28339022 13.97814907 278.68659012 14.0144043 302.08984375 C14.05512911 328.37899188 14.07882594 354.66808373 14.07912689 380.95726514 C14.07922372 383.76050393 14.07939044 386.56374272 14.07960701 389.36698151 C14.07965112 390.05721744 14.07969524 390.74745337 14.07974069 391.45860554 C14.08086063 402.56716584 14.09827059 413.67564341 14.12142633 424.78417707 C14.14426737 435.94885881 14.14807092 447.11343021 14.13387703 458.2781367 C14.12669368 464.32683849 14.12762735 470.3752536 14.15028763 476.42392349 C14.1708322 481.96083149 14.16831914 487.4972316 14.14741278 493.03413382 C14.14390928 495.03749976 14.14886413 497.040902 14.16311722 499.0442203 C14.29522912 518.89166045 14.29522912 518.89166045 7.12007707 526.63611102 C1.26697523 532.04394201 -5.00374653 533.72248537 -12.765625 533.45703125 C-20.10032164 532.53622518 -24.3470701 528.68967548 -29.02734375 523.21484375 C-32.4598207 518.2331137 -32.76082579 513.62980287 -32.72992516 507.71560955 C-32.73343123 506.86805026 -32.7369373 506.02049097 -32.74054962 505.14724806 C-32.74988776 502.29403868 -32.74493407 499.44103233 -32.74008179 496.58781433 C-32.74381683 494.52679872 -32.74841776 492.46578452 -32.75381243 490.40477258 C-32.76607588 484.73071116 -32.76577803 479.05670856 -32.76342368 473.3826369 C-32.76301636 467.26730426 -32.77404654 461.15199068 -32.78353882 455.03666687 C-32.80016803 443.05172352 -32.80567512 431.06680521 -32.80676357 419.08185335 C-32.80768233 409.34233476 -32.81179727 399.60282256 -32.81816483 389.86330605 C-32.81995989 387.06074741 -32.82173952 384.25818877 -32.82351458 381.45563012 C-32.82395668 380.75892379 -32.82439877 380.06221746 -32.82485427 379.34439882 C-32.83716434 359.74470443 -32.84505522 340.14501226 -32.84416771 320.54531384 C-32.84413655 319.80621553 -32.84410539 319.06711723 -32.84407329 318.30562201 C-32.84390708 314.5594852 -32.84370899 310.8133484 -32.84350388 307.06721159 C-32.84346399 306.32320304 -32.8434241 305.57919448 -32.843383 304.81264021 C-32.84330212 303.30807327 -32.84321853 301.80350633 -32.84313221 300.29893939 C-32.84190663 276.88896535 -32.85692049 253.47904925 -32.88427734 230.0690918 C-32.91499334 203.77372866 -32.93221013 177.47840358 -32.9303509 151.18302137 C-32.93020164 148.37951966 -32.93010422 145.57601796 -32.93004227 142.77251625 C-32.93001896 142.0822129 -32.92999565 141.39190954 -32.92997163 140.6806879 C-32.92991007 129.5682255 -32.94268595 118.45581336 -32.9599068 107.3433659 C-32.97685419 96.17646939 -32.97850075 85.00964562 -32.96568815 73.84273692 C-32.95914365 67.79217347 -32.95909486 61.74179231 -32.97639465 55.69124603 C-32.99206469 50.15383276 -32.98932381 44.61674726 -32.97182639 39.07934228 C-32.9687431 37.07465059 -32.97243857 35.06993481 -32.98354654 33.06527152 C-32.99763921 30.34187942 -32.98710374 27.61964155 -32.97043419 24.89628887 C-32.98037055 24.1165615 -32.99030691 23.33683412 -33.00054437 22.53347865 C-32.91135846 15.64944817 -30.56814178 10.60911623 -26.16015625 5.3671875 C-18.40049439 -1.12927359 -10.04189786 -3.58525895 0 0 Z " fill="#322B6F" transform="translate(67.47265625,212.8828125)"/>
<path d="M0 0 C2.19600048 0.01151803 4.39196125 0.01757535 6.58798599 0.02239609 C30.72299182 0.08495264 54.68094663 0.53186186 78.48993301 4.88631821 C79.49844566 5.06974525 79.49844566 5.06974525 80.52733231 5.2568779 C89.78175594 7.02312579 96.09124915 10.89178503 101.90790176 18.38631821 C107.02344414 27.5411131 109.45541162 36.04962993 107.25946426 46.46053696 C104.85357842 54.65494302 101.46683844 59.61839237 94.17352676 64.04647446 C90.35258331 65.6141582 87.09241447 65.83651924 83.03290176 65.76131821 C82.25003799 65.75551743 81.46717422 65.74971664 80.66058731 65.74374008 C67.04731763 65.46849284 53.44028186 63.80009284 39.90790176 62.38631821 C39.86826309 63.21164047 39.82862442 64.03696274 39.78778458 64.88729477 C38.60971189 89.14517823 37.21734068 113.388701 35.77422714 137.63195419 C34.71295062 155.46372497 33.66908963 173.2947927 32.78290176 191.13631821 C32.52874585 196.1784567 32.27210909 201.22046961 32.01538467 206.26247787 C31.94175425 207.71740002 31.86883204 209.17235814 31.7965126 210.62734604 C31.57315888 215.11923753 31.33806819 219.61020648 31.08545303 224.10055161 C30.97542807 226.10715003 30.87765037 228.11440874 30.78046036 230.12166977 C30.08541879 242.09555835 28.16165676 251.67265527 19.09540176 260.07381821 C11.15358873 266.76088383 2.65032048 267.8084979 -7.50616074 267.73397446 C-14.12022252 267.09274189 -18.75434673 264.20456938 -23.90459824 260.19881821 C-24.62647324 259.27069321 -25.34834824 258.34256821 -26.09209824 257.38631821 C-26.55616074 256.79206039 -27.02022324 256.19780258 -27.49834824 255.58553696 C-31.0512984 250.02911767 -31.43087639 244.92575035 -31.34209824 238.53866196 C-31.33531555 237.6371994 -31.32853287 236.73573685 -31.32154465 235.80695724 C-31.13834822 222.57899438 -30.23906767 209.37124367 -29.41716385 196.17074585 C-29.23070103 193.15904192 -29.04906185 190.14705462 -28.86745453 187.13505459 C-27.56514829 165.53850017 -26.18174848 143.94720788 -24.74834824 122.35897446 C-23.39956487 102.04296286 -22.18759431 81.71752917 -21.09209824 61.38631821 C-22.32174301 61.47719711 -22.32174301 61.47719711 -23.5762291 61.56991196 C-32.74470795 62.23872152 -41.91511788 62.84706354 -51.09209824 63.38631821 C-52.06904648 63.44416489 -53.04599472 63.50201157 -54.05254745 63.56161118 C-68.99213308 64.34699667 -68.99213308 64.34699667 -74.52178574 59.93319321 C-75.03998886 59.42272446 -75.55819199 58.91225571 -76.09209824 58.38631821 C-76.65155136 57.85522446 -77.21100449 57.32413071 -77.78741074 56.77694321 C-84.77144129 49.4217806 -85.67645825 41.93271394 -85.43194199 32.07381821 C-84.55415899 22.54936828 -80.21162761 15.65020675 -73.09209824 9.38631821 C-64.87214952 4.09751625 -57.05630162 2.26498182 -47.42022324 1.53475571 C-46.12650803 1.42215408 -44.83279282 1.30955246 -43.49987411 1.19353867 C-29.02183654 0.00073951 -14.51796451 -0.08315813 0 0 Z " fill="#322C6F" transform="translate(939.092098236084,706.6136817932129)"/>
<path d="M0 0 C1.31097656 0.41572266 1.31097656 0.41572266 2.6484375 0.83984375 C15.70096328 5.42301219 28.9525761 15.42135828 35 28 C37.30281773 35.4997172 36.68536833 43.43479395 33.43359375 50.5234375 C26.70934737 62.13971054 16.43903203 67.77559195 3.99609375 71.66796875 C-2.99000233 73.4915453 -9.88208092 73.43939838 -17.0625 73.375 C-18.35994141 73.38660156 -19.65738281 73.39820313 -20.99414062 73.41015625 C-28.49971174 73.3873314 -34.97590539 72.7172074 -42 70 C-42.22655305 61.38387662 -41.69543157 53.07424761 -40.77514648 44.51489258 C-40.16120621 38.54129078 -39.87771609 32.62596925 -39.75708008 26.62304688 C-39.32038564 7.02236159 -39.32038564 7.02236159 -34 -1 C-24.64932734 -8.20781018 -10.05449049 -3.44348302 0 0 Z " fill="#FDFDFE" transform="translate(505,363)"/>
</svg>
