<svg xmlns="http://www.w3.org/2000/svg" xmlns:xlink="http://www.w3.org/1999/xlink" width="1080" zoomAndPan="magnify" viewBox="0 0 810 1012.49997" height="1350" preserveAspectRatio="xMidYMid meet" version="1.2"><defs><clipPath id="6ec8e6b5e5"><path d="M 708 322 L 809.800781 322 L 809.800781 463 L 708 463 Z M 708 322 "/></clipPath></defs><g id="a71c5410ca"><g style="fill:#545454;fill-opacity:1;"><g transform="translate(0.199913, 469.183836)"><path style="stroke:none" d="M 121.234375 -117.921875 C 122.054688 -110.453125 122.125 -102.332031 121.4375 -93.5625 C 120.75 -84.789062 119.160156 -76.019531 116.671875 -67.25 C 114.179688 -58.476562 110.691406 -50.328125 106.203125 -42.796875 C 101.710938 -35.265625 96.1875 -28.90625 89.625 -23.71875 C 83.0625 -18.539062 75.429688 -15.191406 66.734375 -13.671875 C 57.609375 -12.148438 49.832031 -12.875 43.40625 -15.84375 C 36.988281 -18.820312 31.671875 -23.316406 27.453125 -29.328125 C 23.242188 -35.335938 19.894531 -42.3125 17.40625 -50.25 C 14.914062 -58.195312 13.148438 -66.414062 12.109375 -74.90625 C 11.078125 -83.40625 10.523438 -91.59375 10.453125 -99.46875 C 10.390625 -107.34375 10.566406 -114.179688 10.984375 -119.984375 C 11.253906 -123.992188 12.53125 -127.171875 14.8125 -129.515625 C 17.09375 -131.867188 19.785156 -133.457031 22.890625 -134.28125 C 26.003906 -135.113281 29.082031 -135.113281 32.125 -134.28125 C 35.164062 -133.457031 37.648438 -131.867188 39.578125 -129.515625 C 41.515625 -127.171875 42.34375 -123.992188 42.0625 -119.984375 C 41.925781 -117.910156 41.789062 -114.421875 41.65625 -109.515625 C 41.519531 -104.617188 41.585938 -98.988281 41.859375 -92.625 C 42.140625 -86.269531 42.726562 -79.914062 43.625 -73.5625 C 44.519531 -67.207031 45.832031 -61.539062 47.5625 -56.5625 C 49.289062 -51.59375 51.601562 -48.035156 54.5 -45.890625 C 57.40625 -43.753906 61.066406 -43.722656 65.484375 -45.796875 C 71.566406 -48.554688 76.398438 -52.800781 79.984375 -58.53125 C 83.578125 -64.269531 86.203125 -70.660156 87.859375 -77.703125 C 89.523438 -84.753906 90.492188 -91.800781 90.765625 -98.84375 C 91.046875 -105.894531 90.835938 -112.253906 90.140625 -117.921875 C 89.585938 -121.921875 90.207031 -125.09375 92 -127.4375 C 93.800781 -129.789062 96.1875 -131.347656 99.15625 -132.109375 C 102.132812 -132.867188 105.210938 -132.867188 108.390625 -132.109375 C 111.566406 -131.347656 114.363281 -129.757812 116.78125 -127.34375 C 119.195312 -124.925781 120.679688 -121.785156 121.234375 -117.921875 Z M 121.234375 -117.921875 "/></g></g><g style="fill:#545454;fill-opacity:1;"><g transform="translate(132.410907, 469.183836)"><path style="stroke:none" d="M 83.71875 -141.75 C 90.351562 -138.988281 96.398438 -135.429688 101.859375 -131.078125 C 107.316406 -126.722656 111.738281 -121.675781 115.125 -115.9375 C 118.507812 -110.207031 120.441406 -104.023438 120.921875 -97.390625 C 121.398438 -90.765625 119.984375 -83.859375 116.671875 -76.671875 C 112.390625 -67.972656 106.445312 -61.03125 98.84375 -55.84375 C 91.25 -50.664062 82.859375 -47.347656 73.671875 -45.890625 C 64.484375 -44.441406 55.398438 -44.753906 46.421875 -46.828125 C 45.585938 -38.953125 44.753906 -31.078125 43.921875 -23.203125 C 43.097656 -15.328125 42.273438 -7.453125 41.453125 0.421875 C 41.035156 4.285156 39.6875 7.425781 37.40625 9.84375 C 35.125 12.257812 32.394531 13.847656 29.21875 14.609375 C 26.039062 15.367188 22.929688 15.367188 19.890625 14.609375 C 16.847656 13.847656 14.429688 12.289062 12.640625 9.9375 C 10.847656 7.59375 10.085938 4.421875 10.359375 0.421875 C 12.296875 -18.234375 14.160156 -36.851562 15.953125 -55.4375 C 17.753906 -74.019531 19.691406 -92.566406 21.765625 -111.078125 C 22.722656 -118.398438 24.722656 -124.992188 27.765625 -130.859375 C 30.804688 -136.734375 35.988281 -141.054688 43.3125 -143.828125 C 49.800781 -146.304688 56.601562 -147.203125 63.71875 -146.515625 C 70.832031 -145.828125 77.5 -144.238281 83.71875 -141.75 Z M 49.53125 -78.125 C 52.976562 -77.15625 56.910156 -76.601562 61.328125 -76.46875 C 65.753906 -76.332031 70.109375 -76.816406 74.390625 -77.921875 C 78.679688 -79.023438 82.273438 -80.921875 85.171875 -83.609375 C 88.078125 -86.304688 89.734375 -90.003906 90.140625 -94.703125 C 90.421875 -97.742188 89.382812 -100.679688 87.03125 -103.515625 C 84.6875 -106.347656 81.648438 -108.800781 77.921875 -110.875 C 74.191406 -112.945312 70.460938 -114.429688 66.734375 -115.328125 C 63.003906 -116.222656 59.828125 -116.328125 57.203125 -115.640625 C 55.679688 -115.085938 54.742188 -114.738281 54.390625 -114.59375 C 54.046875 -114.457031 53.875 -114.179688 53.875 -113.765625 C 53.875 -113.359375 53.53125 -112.460938 52.84375 -111.078125 C 52.007812 -109.285156 51.59375 -106.867188 51.59375 -103.828125 C 51.59375 -100.785156 51.523438 -98.160156 51.390625 -95.953125 C 51.117188 -92.910156 50.804688 -89.9375 50.453125 -87.03125 C 50.109375 -84.132812 49.800781 -81.164062 49.53125 -78.125 Z M 49.53125 -78.125 "/></g></g><g style="fill:#545454;fill-opacity:1;"><g transform="translate(263.793005, 469.183836)"><path style="stroke:none" d=""/></g></g><g style="fill:#545454;fill-opacity:1;"><g transform="translate(326.790089, 469.183836)"><path style="stroke:none" d="M 91.1875 -125.796875 C 91.738281 -129.796875 93.1875 -132.691406 95.53125 -134.484375 C 97.882812 -136.285156 100.613281 -137.148438 103.71875 -137.078125 C 106.832031 -137.015625 109.835938 -136.1875 112.734375 -134.59375 C 115.640625 -133.007812 117.921875 -130.726562 119.578125 -127.75 C 121.234375 -124.78125 121.785156 -121.363281 121.234375 -117.5 C 115.566406 -79.375 108.519531 -41.519531 100.09375 -3.9375 C 99.40625 -0.894531 97.851562 1.585938 95.4375 3.515625 C 93.019531 5.453125 90.21875 6.660156 87.03125 7.140625 C 83.851562 7.628906 80.847656 7.285156 78.015625 6.109375 C 75.191406 4.941406 73.085938 2.835938 71.703125 -0.203125 C 68.523438 -7.804688 65.273438 -15.367188 61.953125 -22.890625 C 58.640625 -30.421875 55.328125 -37.988281 52.015625 -45.59375 C 49.941406 -36.613281 47.9375 -27.597656 46 -18.546875 C 44.070312 -9.492188 42.28125 -0.410156 40.625 8.703125 C 39.925781 12.566406 38.332031 15.394531 35.84375 17.1875 C 33.363281 18.988281 30.566406 19.890625 27.453125 19.890625 C 24.347656 19.890625 21.378906 19.0625 18.546875 17.40625 C 15.710938 15.75 13.5 13.46875 11.90625 10.5625 C 10.320312 7.664062 9.945312 4.285156 10.78125 0.421875 C 16.851562 -32.460938 24.3125 -65.070312 33.15625 -97.40625 C 33.988281 -100.4375 35.644531 -102.921875 38.125 -104.859375 C 40.613281 -106.796875 43.410156 -108.039062 46.515625 -108.59375 C 49.628906 -109.144531 52.566406 -108.832031 55.328125 -107.65625 C 58.085938 -106.476562 60.160156 -104.300781 61.546875 -101.125 L 79.78125 -59.0625 C 81.988281 -70.113281 84.023438 -81.195312 85.890625 -92.3125 C 87.765625 -103.4375 89.53125 -114.597656 91.1875 -125.796875 Z M 91.1875 -125.796875 "/></g></g><g style="fill:#545454;fill-opacity:1;"><g transform="translate(458.586658, 469.183836)"><path style="stroke:none" d="M 86.421875 -43.71875 C 90.421875 -43.582031 93.628906 -42.410156 96.046875 -40.203125 C 98.472656 -37.992188 100.0625 -35.332031 100.8125 -32.21875 C 101.570312 -29.113281 101.570312 -26.039062 100.8125 -23 C 100.0625 -19.957031 98.472656 -17.4375 96.046875 -15.4375 C 93.628906 -13.4375 90.421875 -12.503906 86.421875 -12.640625 C 77.023438 -13.054688 67.628906 -13.019531 58.234375 -12.53125 C 48.835938 -12.050781 39.441406 -11.050781 30.046875 -9.53125 C 27.148438 -9.113281 24.113281 -9.421875 20.9375 -10.453125 C 17.757812 -11.492188 15.097656 -13.1875 12.953125 -15.53125 C 10.804688 -17.882812 10.007812 -20.925781 10.5625 -24.65625 C 12.914062 -43.726562 15.507812 -62.796875 18.34375 -81.859375 C 21.175781 -100.921875 24.25 -119.984375 27.5625 -139.046875 C 27.976562 -141.398438 28.804688 -143.40625 30.046875 -145.0625 C 31.148438 -147 32.738281 -148.625 34.8125 -149.9375 C 36.882812 -151.25 39.441406 -151.972656 42.484375 -152.109375 C 57.398438 -152.523438 72.320312 -152.25 87.25 -151.28125 C 91.25 -151 94.457031 -149.71875 96.875 -147.4375 C 99.300781 -145.164062 100.890625 -142.472656 101.640625 -139.359375 C 102.398438 -136.253906 102.398438 -133.179688 101.640625 -130.140625 C 100.890625 -127.097656 99.300781 -124.609375 96.875 -122.671875 C 94.457031 -120.742188 91.25 -119.921875 87.25 -120.203125 C 77.019531 -120.890625 66.585938 -121.234375 55.953125 -121.234375 C 55.265625 -117.222656 54.570312 -113.210938 53.875 -109.203125 C 53.1875 -105.203125 52.566406 -101.195312 52.015625 -97.1875 C 57.679688 -97.050781 63.140625 -96.707031 68.390625 -96.15625 C 72.535156 -95.738281 76.160156 -94.179688 79.265625 -91.484375 C 82.378906 -88.796875 83.9375 -85.171875 83.9375 -80.609375 C 83.9375 -77.984375 83.207031 -75.425781 81.75 -72.9375 C 80.300781 -70.457031 78.398438 -68.457031 76.046875 -66.9375 C 73.703125 -65.414062 71.148438 -64.796875 68.390625 -65.078125 C 61.335938 -65.765625 54.289062 -66.109375 47.25 -66.109375 C 46.695312 -62.242188 46.144531 -58.304688 45.59375 -54.296875 C 45.039062 -50.285156 44.488281 -46.347656 43.9375 -42.484375 C 50.976562 -43.171875 58.019531 -43.617188 65.0625 -43.828125 C 72.113281 -44.035156 79.234375 -44 86.421875 -43.71875 Z M 86.421875 -43.71875 "/></g></g><g style="fill:#545454;fill-opacity:1;"><g transform="translate(571.111053, 469.183836)"><path style="stroke:none" d="M 89.109375 -133.453125 C 90.765625 -137.046875 93.039062 -139.394531 95.9375 -140.5 C 98.84375 -141.601562 101.816406 -141.707031 104.859375 -140.8125 C 107.898438 -139.914062 110.5625 -138.328125 112.84375 -136.046875 C 115.125 -133.765625 116.640625 -131.035156 117.390625 -127.859375 C 118.148438 -124.679688 117.632812 -121.296875 115.84375 -117.703125 C 106.3125 -98.773438 96.226562 -79.988281 85.59375 -61.34375 C 89.875 -55.675781 94.1875 -50.046875 98.53125 -44.453125 C 102.882812 -38.859375 107.34375 -33.296875 111.90625 -27.765625 C 114.394531 -24.722656 115.640625 -21.546875 115.640625 -18.234375 C 115.640625 -14.921875 114.804688 -11.847656 113.140625 -9.015625 C 111.484375 -6.179688 109.304688 -3.96875 106.609375 -2.375 C 103.921875 -0.789062 101.09375 -0.207031 98.125 -0.625 C 95.15625 -1.039062 92.425781 -2.765625 89.9375 -5.796875 C 82.613281 -14.640625 75.5 -23.550781 68.59375 -32.53125 C 62.65625 -23 56.644531 -13.609375 50.5625 -4.359375 C 48.351562 -0.898438 45.691406 1.273438 42.578125 2.171875 C 39.472656 3.066406 36.363281 3.066406 33.25 2.171875 C 30.144531 1.273438 27.488281 -0.273438 25.28125 -2.484375 C 23.070312 -4.691406 21.691406 -7.316406 21.140625 -10.359375 C 20.585938 -13.398438 21.414062 -16.578125 23.625 -19.890625 C 28.039062 -26.523438 32.320312 -33.15625 36.46875 -39.78125 C 40.613281 -46.414062 44.691406 -53.050781 48.703125 -59.6875 C 35.847656 -77.78125 23.828125 -96.15625 12.640625 -114.8125 C 10.566406 -118.257812 9.835938 -121.535156 10.453125 -124.640625 C 11.078125 -127.753906 12.492188 -130.414062 14.703125 -132.625 C 16.921875 -134.84375 19.582031 -136.398438 22.6875 -137.296875 C 25.800781 -138.191406 28.875 -138.117188 31.90625 -137.078125 C 34.945312 -136.046875 37.503906 -133.875 39.578125 -130.5625 C 47.867188 -116.601562 56.570312 -102.851562 65.6875 -89.3125 C 73.84375 -103.957031 81.648438 -118.671875 89.109375 -133.453125 Z M 89.109375 -133.453125 "/></g></g><g clip-rule="nonzero" clip-path="url(#6ec8e6b5e5)"><g style="fill:#545454;fill-opacity:1;"><g transform="translate(699.177501, 469.183836)"><path style="stroke:none" d="M 94.5 -142.375 C 98.363281 -141.820312 101.46875 -140.367188 103.8125 -138.015625 C 106.164062 -135.671875 107.753906 -132.910156 108.578125 -129.734375 C 109.410156 -126.554688 109.410156 -123.445312 108.578125 -120.40625 C 107.753906 -117.363281 106.164062 -114.976562 103.8125 -113.25 C 101.46875 -111.519531 98.363281 -110.863281 94.5 -111.28125 C 88.144531 -112.113281 81.515625 -112.738281 74.609375 -113.15625 C 73.640625 -98.09375 72.703125 -83.03125 71.796875 -67.96875 C 70.898438 -52.914062 69.972656 -37.789062 69.015625 -22.59375 C 68.867188 -18.71875 67.65625 -15.570312 65.375 -13.15625 C 63.101562 -10.738281 60.410156 -9.113281 57.296875 -8.28125 C 54.191406 -7.457031 51.117188 -7.457031 48.078125 -8.28125 C 45.035156 -9.113281 42.546875 -10.703125 40.609375 -13.046875 C 38.679688 -15.398438 37.785156 -18.582031 37.921875 -22.59375 C 38.890625 -37.789062 39.820312 -52.953125 40.71875 -68.078125 C 41.613281 -83.203125 42.546875 -98.363281 43.515625 -113.5625 C 37.296875 -113.289062 31.21875 -112.878906 25.28125 -112.328125 C 21.269531 -111.910156 18.054688 -112.632812 15.640625 -114.5 C 13.222656 -116.363281 11.632812 -118.8125 10.875 -121.84375 C 10.113281 -124.882812 10.148438 -127.957031 10.984375 -131.0625 C 11.816406 -134.175781 13.40625 -136.90625 15.75 -139.25 C 18.09375 -141.601562 21.269531 -142.988281 25.28125 -143.40625 C 48.351562 -145.75 71.425781 -145.40625 94.5 -142.375 Z M 94.5 -142.375 "/></g></g></g></g></svg>